<?xml version="1.0" encoding="utf-8"?>
<!-- Generator: Adobe Illustrator 16.0.0, SVG Export Plug-In . SVG Version: 6.00 Build 0)  -->
<!DOCTYPE svg PUBLIC "-//W3C//DTD SVG 1.1//EN" "http://www.w3.org/Graphics/SVG/1.1/DTD/svg11.dtd">
<svg version="1.1" id="Layer_1" xmlns="http://www.w3.org/2000/svg" xmlns:xlink="http://www.w3.org/1999/xlink" x="0px" y="0px"
	 width="321.946px" height="321.926px" viewBox="0 0 321.946 321.926" enable-background="new 0 0 321.946 321.926"
	 xml:space="preserve">
<g>
	<path fill="#231F20" d="M296.308,132.147c-3.58-16.82-10.183-32.535-19.271-46.496l14.921-21.357l-34.325-34.309l-21.355,14.911
		c-13.963-9.082-29.653-15.71-46.493-19.269L185.231,0h-24.259h-24.266l-4.552,25.627c-16.828,3.559-32.542,10.187-46.499,19.269
		L64.303,29.984L29.981,64.293l14.931,21.357c-9.091,13.961-15.704,29.676-19.279,46.496L0,136.719v48.512l25.632,4.551
		c3.576,16.824,10.188,32.531,19.279,46.494l-14.915,21.365l34.312,34.305l21.347-14.914c13.958,9.082,29.671,15.693,46.499,19.27
		l4.568,25.625h24.25h24.259l4.552-25.625c16.84-3.576,32.53-10.188,46.493-19.27l21.355,14.914l34.325-34.305l-14.921-21.365
		c9.089-13.963,15.692-29.67,19.271-46.494l25.638-4.551v-48.512L296.308,132.147z M235.439,218.717
		c-2.979,0-5.845-0.467-8.532-1.342c-15.919,18.588-39.543,30.387-65.935,30.387c-47.934,0-86.796-38.867-86.796-86.801
		s38.862-86.795,86.796-86.795c47.937,0,86.795,38.861,86.795,86.795c0,1.742-0.067,3.465-0.169,5.182
		c9.195,4.512,15.527,13.953,15.527,24.887C263.126,206.321,250.729,218.717,235.439,218.717z"/>
	<g>
		<path fill="#1C75BC" d="M236.992,172.323c0.447-3.332,0.697-6.73,0.697-10.191H84.257c0,42.363,34.351,76.715,76.716,76.715
			c26.1,0,49.144-13.049,63.001-32.969c3.173,2.457,7.143,3.936,11.465,3.936c10.369,0,18.777-8.414,18.777-18.783
			C254.216,181.184,246.634,173.12,236.992,172.323z M235.439,201.208c-2.668,0-5.09-1.037-6.907-2.713
			c2.971-5.514,5.286-11.428,6.844-17.648c0.021,0,0.042,0,0.063,0c5.618,0,10.178,4.553,10.178,10.184
			C245.617,196.651,241.057,201.208,235.439,201.208z"/>
		<path fill="#1C75BC" d="M139.668,156.696h15.191c0.102-0.473,0.218-0.947,0.287-1.42c1.375-8.777-2.07-17.391-10.267-25.58
			c-1.55-1.555-4.121-4.537-3.77-6.975c0.341-2.422,3.47-4.855,4.932-5.646l-6.695-12.689c-1.095,0.58-10.844,5.941-12.41,16.135
			c-0.702,4.551,0.085,11.6,7.806,19.305C140.928,146.016,142.527,151.301,139.668,156.696z"/>
		<path fill="#1C75BC" d="M175.937,156.696h15.202c0.096-0.473,0.208-0.947,0.286-1.42c1.374-8.777-2.078-17.391-10.269-25.58
			c-1.558-1.555-4.126-4.537-3.77-6.975c0.346-2.422,3.462-4.855,4.924-5.646l-6.68-12.689c-1.111,0.58-10.855,5.941-12.416,16.135
			c-0.708,4.551,0.083,11.6,7.798,19.305C177.196,146.016,178.799,151.301,175.937,156.696z"/>
	</g>
</g>
</svg>
