<?xml version="1.0" encoding="utf-8"?>
<!-- Generator: Adobe Illustrator 16.0.0, SVG Export Plug-In . SVG Version: 6.00 Build 0)  -->
<!DOCTYPE svg PUBLIC "-//W3C//DTD SVG 1.1//EN" "http://www.w3.org/Graphics/SVG/1.1/DTD/svg11.dtd">
<svg version="1.1" id="Layer_1" xmlns="http://www.w3.org/2000/svg" xmlns:xlink="http://www.w3.org/1999/xlink" x="0px" y="0px"
	 width="680.098px" height="404.389px" viewBox="0 0 680.098 404.389" enable-background="new 0 0 680.098 404.389"
	 xml:space="preserve">
<g>
	<g>
		<path fill="#1C75BC" d="M41.661,335.774c-1.52-1.267-3.175-2.217-4.976-2.853c-1.865-0.633-3.838-0.95-5.914-0.95
			c-3.881,0-7.159,1.25-9.832,3.754c-2.715,2.5-4.073,5.601-4.073,9.301c0,2.891,0.582,5.482,1.743,7.771
			c1.134,2.29,2.803,4.104,5.024,5.444c2.146,1.374,4.631,2.063,7.452,2.063c4.156,0,7.72-1.321,10.675-3.964l9.254,11.733
			c-1.338,1.411-3.203,2.659-5.602,3.753c-2.436,1.09-4.933,1.904-7.507,2.43c-2.57,0.53-4.953,0.794-7.134,0.794
			c-6.139,0-11.543-1.284-16.231-3.856c-4.687-2.61-8.281-6.028-10.785-10.254c-2.501-4.305-3.756-8.898-3.756-13.798
			c0-4.477,0.76-8.527,2.275-12.16c1.555-3.7,3.682-6.872,6.397-9.512c2.68-2.572,5.941-4.599,9.78-6.082
			c3.803-1.443,7.908-2.168,12.319-2.168c3.595,0,7.096,0.563,10.521,1.695c3.449,1.161,6.496,2.801,9.14,4.915L41.661,335.774z"/>
		<path fill="#1C75BC" d="M92.929,371.984c-1.125,0.496-1.957,0.829-2.482,1.004c-3.736,1.45-7.646,2.17-11.735,2.17
			c-5.391,0-10.482-1.253-15.274-3.753c-4.796-2.542-8.599-5.989-11.424-10.362c-2.853-4.44-4.277-9.391-4.277-14.849
			c0-4.125,0.828-7.969,2.481-11.525c1.66-3.525,3.933-6.595,6.821-9.198c2.856-2.608,6.165-4.599,9.937-5.978
			c3.778-1.44,7.684-2.165,11.737-2.165c4.015,0,7.928,0.704,11.735,2.116c3.803,1.409,7.118,3.418,9.937,6.026
			c2.962,2.676,5.25,5.742,6.872,9.198c1.655,3.557,2.487,7.4,2.487,11.525l-0.059,27.537l-16.755-0.156V371.984z M66.553,339.371
			c-1.306,2.081-1.957,4.354-1.957,6.823c0,3.73,1.411,6.954,4.23,9.67c2.783,2.678,6.076,4.014,9.885,4.014
			c3.839,0,7.151-1.336,9.937-4.014c2.818-2.716,4.228-5.939,4.228-9.67c0-2.47-0.648-4.742-1.955-6.823
			c-1.302-2.08-3.049-3.735-5.234-4.971c-2.147-1.198-4.474-1.796-6.975-1.796c-2.43,0-4.74,0.598-6.926,1.796
			C69.602,335.636,67.857,337.291,66.553,339.371z"/>
		<path fill="#1C75BC" d="M121.74,319.389c0-6.553,1.123-11.59,3.38-15.118c2.259-3.487,5.427-6.06,9.516-7.715
			c4.022-1.624,8.88-2.434,14.592-2.434l0.105,15.647c-4.266-0.034-7.118,0.584-8.563,1.853c-1.448,1.335-2.17,3.93-2.17,7.767
			h6.613l3.751,14.484H138.6v39.644h-16.86v-39.644h-5.546l-3.814-14.484H121.74z"/>
		<path fill="#1C75BC" d="M161.334,319.389c0-6.553,1.119-11.59,3.375-15.118c2.259-3.487,5.432-6.06,9.521-7.715
			c4.018-1.624,8.876-2.434,14.587-2.434l0.105,15.647c-4.261-0.034-7.118,0.584-8.563,1.853c-1.441,1.335-2.17,3.93-2.17,7.767
			h6.613l3.756,14.484h-10.369v39.644h-16.855v-39.644h-5.55l-3.81-14.484H161.334z"/>
		<path fill="#1C75BC" d="M248.603,334.718c1.586,3.562,2.382,7.365,2.382,11.418v0.477c0,0.179-0.02,0.369-0.056,0.584
			l-0.105,0.899h-6.554v0.103h-36.364c0.42,2.962,1.707,5.517,3.854,7.666c2.716,2.678,5.89,4.014,9.516,4.014
			c3.667,0,6.836-1.336,9.514-4.014l0.105-0.105l0.161-0.214l0.161-0.159l0.103-0.154l9.089,13.001
			c-2.606,2.116-5.248,3.721-7.923,4.814c-3.599,1.404-7.335,2.111-11.209,2.111c-5.25,0-10.136-1.253-14.641-3.753
			c-4.619-2.542-8.265-6.009-10.939-10.414c-2.753-4.406-4.125-9.357-4.125-14.855c0-4.123,0.79-7.926,2.376-11.418
			c1.582-3.521,3.771-6.588,6.557-9.195c2.818-2.678,5.993-4.705,9.514-6.078c3.626-1.412,7.382-2.116,11.259-2.116
			c3.875,0,7.61,0.704,11.209,2.116c3.559,1.373,6.742,3.38,9.563,6.026C244.832,328.039,247.021,331.126,248.603,334.718z
			 M221.276,332.604c-2.362,0-4.583,0.598-6.659,1.796c-1.271,0.778-2.503,1.87-3.7,3.282h20.721
			c-1.201-1.412-2.434-2.504-3.702-3.282C225.853,333.202,223.636,332.604,221.276,332.604z"/>
		<path fill="#1C75BC" d="M315.578,340.322v33.302h-16.971v-33.302c-0.281-4.971-2.413-7.525-6.393-7.662h-0.953
			c-4.301,0.137-6.445,3.114-6.445,8.931v32.033h-16.917v-32.033c0-15.328,7.787-23.417,23.363-24.263h0.953
			c6.201,0.354,11.17,1.83,14.904,4.44c3.698-2.61,8.65-4.087,14.859-4.44h0.945c15.576,0.846,23.367,8.935,23.367,24.263v32.033
			h-16.917v-32.033c0-5.816-2.147-8.794-6.449-8.931h-0.945C317.992,332.797,315.859,335.352,315.578,340.322z"/>
		<path fill="#1C75BC" d="M394.185,371.984c-1.135,0.496-1.963,0.829-2.492,1.004c-3.729,1.45-7.643,2.17-11.73,2.17
			c-5.396,0-10.482-1.253-15.275-3.753c-4.795-2.542-8.598-5.989-11.418-10.362c-2.857-4.44-4.283-9.391-4.283-14.849
			c0-4.125,0.828-7.969,2.482-11.525c1.654-3.525,3.928-6.595,6.82-9.198c2.855-2.608,6.164-4.599,9.936-5.978
			c3.771-1.44,7.684-2.165,11.738-2.165c4.02,0,7.928,0.704,11.73,2.116c3.814,1.409,7.123,3.418,9.941,6.026
			c2.959,2.676,5.25,5.742,6.871,9.198c1.656,3.557,2.488,7.4,2.488,11.525l-0.053,27.537l-16.756-0.156V371.984z M367.804,339.371
			c-1.303,2.081-1.957,4.354-1.957,6.823c0,3.73,1.41,6.954,4.23,9.67c2.781,2.678,6.074,4.014,9.885,4.014
			c3.842,0,7.15-1.336,9.936-4.014c2.818-2.716,4.229-5.939,4.229-9.67c0-2.47-0.648-4.742-1.955-6.823
			c-1.307-2.08-3.049-3.735-5.234-4.971c-2.148-1.198-4.475-1.796-6.975-1.796c-2.43,0-4.74,0.598-6.926,1.796
			C370.853,335.636,369.103,337.291,367.804,339.371z"/>
		<path fill="#1C75BC" d="M437,332.604c-4.303,0.177-6.451,3.17-6.451,8.986v31.984H413.63v-31.984
			c0-15.397,7.789-23.488,23.369-24.263h0.947c15.576,0.774,23.363,8.865,23.363,24.263v31.984h-16.912v-31.984
			c0-5.816-2.15-8.81-6.451-8.986H437z"/>
		<path fill="#1C75BC" d="M509.152,371.984c-1.129,0.496-1.957,0.829-2.482,1.004c-3.74,1.45-7.654,2.17-11.736,2.17
			c-5.391,0-10.482-1.253-15.273-3.753c-4.799-2.542-8.602-5.989-11.424-10.362c-2.854-4.44-4.283-9.391-4.283-14.849
			c0-4.125,0.834-7.969,2.486-11.525c1.66-3.525,3.936-6.595,6.82-9.198c2.857-2.608,6.166-4.599,9.938-5.978
			c3.771-1.44,7.684-2.165,11.736-2.165c4.016,0,7.924,0.704,11.736,2.116c3.803,1.409,7.117,3.418,9.932,6.026
			c2.963,2.676,5.254,5.742,6.871,9.198c1.66,3.557,2.492,7.4,2.492,11.525l-0.059,27.537l-16.754-0.156V371.984z M482.775,339.371
			c-1.307,2.081-1.957,4.354-1.957,6.823c0,3.73,1.412,6.954,4.23,9.67c2.783,2.678,6.076,4.014,9.885,4.014
			c3.84,0,7.152-1.336,9.938-4.014c2.818-2.716,4.227-5.939,4.227-9.67c0-2.47-0.648-4.742-1.955-6.823
			c-1.305-2.08-3.049-3.735-5.234-4.971c-2.146-1.198-4.473-1.796-6.975-1.796c-2.43,0-4.744,0.598-6.926,1.796
			C485.824,335.636,484.082,337.291,482.775,339.371z"/>
		<path fill="#1C75BC" d="M587.65,346.668l-0.055,28.651v3.91c0,6.943-2.465,12.876-7.402,17.815
			c-2.283,2.286-5.352,4.103-9.197,5.44c-3.588,1.271-7.152,1.903-10.68,1.903h-2.955c-8.033-0.179-14.432-2.628-19.188-7.344
			c-3.209-3.282-5.145-6.151-5.814-8.621l16.121-9.355c0.172,2.783,1.287,5.146,3.33,7.083c2.045,1.939,4.475,2.907,7.293,2.907
			c2.221,0,4.25-0.635,6.082-1.905c1.795-1.23,3.086-2.816,3.859-4.754l0.047-0.213l0.109-0.262
			c0.068-0.248,0.137-0.496,0.213-0.744c0.137-0.421,0.223-0.842,0.262-1.267v-0.156l0.051-0.161l0.059-0.206v-0.322h0.051v-5.552
			l-0.422,0.215l-0.426,0.158c-3.523,1.443-7.225,2.164-11.098,2.164c-5.145,0-9.961-1.287-14.43-3.853
			c-4.479-2.503-8.074-6.013-10.789-10.522c-2.711-4.51-4.068-9.529-4.068-15.066c0-4.194,0.795-8.068,2.381-11.63
			c1.51-3.521,3.662-6.659,6.447-9.411c2.717-2.604,5.848-4.631,9.412-6.078c3.588-1.44,7.271-2.165,11.047-2.165
			c6.557,0,11.416,0.846,14.588,2.536C582.591,324.2,587.65,333.135,587.65,346.668z M549.328,356.023
			c2.785,2.711,5.988,4.066,9.619,4.066c3.664,0,6.887-1.355,9.672-4.066c2.752-2.68,4.125-5.905,4.125-9.673
			c0-2.398-0.635-4.652-1.902-6.77c-1.271-2.115-2.963-3.769-5.074-4.966c-2.154-1.198-4.428-1.798-6.82-1.798
			c-2.398,0-4.635,0.6-6.715,1.798c-2.113,1.197-3.824,2.851-5.125,4.966c-1.27,2.117-1.904,4.371-1.904,6.77
			C545.203,350.118,546.576,353.344,549.328,356.023z"/>
		<path fill="#1C75BC" d="M647.33,334.718c1.582,3.562,2.377,7.365,2.377,11.418v0.477c0,0.179-0.016,0.369-0.057,0.584
			l-0.104,0.899h-6.555v0.103h-36.363c0.42,2.962,1.703,5.517,3.857,7.666c2.713,2.678,5.879,4.014,9.518,4.014
			c3.662,0,6.828-1.336,9.514-4.014l0.105-0.105l0.154-0.214l0.162-0.159l0.1-0.154l9.092,13.001
			c-2.602,2.116-5.25,3.721-7.928,4.814c-3.59,1.404-7.33,2.111-11.199,2.111c-5.256,0-10.137-1.253-14.646-3.753
			c-4.615-2.542-8.266-6.009-10.941-10.414c-2.746-4.406-4.125-9.357-4.125-14.855c0-4.123,0.793-7.926,2.379-11.418
			c1.586-3.521,3.771-6.588,6.559-9.195c2.816-2.678,5.984-4.705,9.512-6.078c3.631-1.412,7.381-2.116,11.264-2.116
			c3.869,0,7.609,0.704,11.199,2.116c3.557,1.373,6.752,3.38,9.572,6.026C643.558,328.039,645.744,331.126,647.33,334.718z
			 M620.003,332.604c-2.369,0-4.584,0.598-6.664,1.796c-1.271,0.778-2.5,1.87-3.701,3.282h20.721
			c-1.201-1.412-2.428-2.504-3.699-3.282C624.58,333.202,622.363,332.604,620.003,332.604z"/>
		<path fill="#1C75BC" d="M680.099,333.558c-0.879-0.598-2.025-0.934-3.434-1.005h-0.951c-4.305,0.175-6.447,3.173-6.447,8.988
			v32.034h-16.918v-32.034c0-15.403,7.789-23.488,23.365-24.265h0.951c1.16,0.036,2.305,0.142,3.434,0.315V333.558z"/>
	</g>
	<g>
		<path fill="#231F20" d="M448.966,106.346c-2.885-13.538-8.201-26.182-15.51-37.415l12.002-17.189L417.833,24.13l-17.178,12
			c-11.242-7.309-23.867-12.64-37.42-15.505L359.574,0h-19.519h-19.529l-3.664,20.625c-13.54,2.865-26.188,8.196-37.42,15.505
			l-17.187-12l-27.62,27.611l12.017,17.189c-7.319,11.233-12.637,23.877-15.513,37.415l-20.631,3.678v39.04l20.631,3.659
			c2.876,13.547,8.194,26.187,15.513,37.42l-12.001,17.196l27.613,27.605l17.177-12.003c11.232,7.308,23.88,12.632,37.42,15.507
			l3.674,20.625h19.52h19.519l3.662-20.625c13.553-2.875,26.178-8.199,37.42-15.507l17.178,12.003l27.625-27.605l-12.002-17.196
			c7.309-11.233,12.625-23.873,15.51-37.42l20.627-3.659v-39.04L448.966,106.346z M399.974,176.014c-2.391,0-4.703-0.38-6.861-1.078
			c-12.813,14.959-31.822,24.45-53.062,24.45c-38.57,0-69.848-31.272-69.848-69.852c0-38.574,31.277-69.848,69.848-69.848
			c38.578,0,69.851,31.273,69.851,69.848c0,1.402-0.055,2.792-0.137,4.174c7.398,3.622,12.496,11.228,12.496,20.028
			C422.261,166.037,412.285,176.014,399.974,176.014z"/>
		<g>
			<path fill="#1C75BC" d="M401.228,138.679c0.359-2.688,0.563-5.418,0.563-8.205H278.314c0,34.094,27.645,61.738,61.736,61.738
				c21.007,0,39.55-10.5,50.701-26.528c2.555,1.974,5.748,3.159,9.223,3.159c8.346,0,15.113-6.768,15.113-15.109
				C415.087,145.806,408.984,139.314,401.228,138.679z M399.974,161.919c-2.143,0-4.094-0.83-5.555-2.182
				c2.391-4.436,4.254-9.195,5.508-14.199c0.016,0,0.031,0,0.047,0c4.527,0,8.193,3.661,8.193,8.195
				C408.167,158.257,404.501,161.919,399.974,161.919z"/>
			<path fill="#1C75BC" d="M322.908,126.103h12.225c0.084-0.38,0.178-0.761,0.229-1.143c1.109-7.066-1.664-13.997-8.262-20.587
				c-1.248-1.251-3.313-3.651-3.033-5.615c0.277-1.948,2.795-3.905,3.971-4.546l-5.389-10.209c-0.881,0.47-8.725,4.782-9.99,12.983
				c-0.561,3.664,0.074,9.337,6.286,15.538C323.922,117.509,325.213,121.763,322.908,126.103z"/>
			<path fill="#1C75BC" d="M352.091,126.103h12.236c0.078-0.38,0.168-0.761,0.23-1.143c1.104-7.066-1.672-13.997-8.268-20.587
				c-1.254-1.251-3.318-3.651-3.027-5.615c0.275-1.948,2.783-3.905,3.959-4.546l-5.375-10.209c-0.895,0.47-8.734,4.782-9.992,12.983
				c-0.568,3.664,0.066,9.337,6.273,15.538C353.107,117.509,354.398,121.763,352.091,126.103z"/>
		</g>
	</g>
</g>
</svg>
