<?xml version="1.0" encoding="utf-8"?>
<!-- Generator: Adobe Illustrator 16.0.0, SVG Export Plug-In . SVG Version: 6.00 Build 0)  -->
<!DOCTYPE svg PUBLIC "-//W3C//DTD SVG 1.1//EN" "http://www.w3.org/Graphics/SVG/1.1/DTD/svg11.dtd">
<svg version="1.1" id="Layer_1" xmlns="http://www.w3.org/2000/svg" xmlns:xlink="http://www.w3.org/1999/xlink" x="0px" y="0px"
	 width="1510.806px" height="321.93px" viewBox="0 0 1510.806 321.93" enable-background="new 0 0 1510.806 321.93"
	 xml:space="preserve">
<g>
	<g>
		<g>
			<path fill="#231F20" d="M436.229,143.499c-2.548-2.134-5.342-3.733-8.364-4.801c-3.147-1.068-6.467-1.602-9.963-1.602
				c-6.523,0-12.044,2.104-16.549,6.313c-4.568,4.21-6.851,9.431-6.851,15.658c0,4.863,0.978,9.226,2.934,13.085
				c1.904,3.852,4.718,6.905,8.454,9.164c3.615,2.309,7.798,3.468,12.542,3.468c6.998,0,12.99-2.224,17.974-6.673l15.565,19.75
				c-2.246,2.376-5.389,4.479-9.426,6.317c-4.094,1.832-8.302,3.203-12.635,4.089c-4.329,0.895-8.331,1.336-12.008,1.336
				c-10.321,0-19.426-2.164-27.313-6.494c-7.886-4.389-13.942-10.141-18.151-17.256c-4.213-7.239-6.32-14.979-6.32-23.223
				c0-7.536,1.274-14.354,3.824-20.466c2.616-6.228,6.201-11.567,10.769-16.015c4.504-4.324,9.998-7.737,16.458-10.234
				c6.404-2.424,13.314-3.648,20.732-3.648c6.051,0,11.95,0.958,17.708,2.853c5.808,1.957,10.941,4.716,15.384,8.276
				L436.229,143.499z"/>
			<path fill="#231F20" d="M522.524,204.443c-1.893,0.837-3.293,1.396-4.176,1.691c-6.291,2.438-12.872,3.65-19.752,3.65
				c-9.073,0-17.643-2.106-25.712-6.317c-8.069-4.272-14.478-10.082-19.222-17.439c-4.801-7.471-7.206-15.807-7.206-24.996
				c0-6.943,1.396-13.412,4.183-19.398c2.79-5.933,6.613-11.089,11.482-15.482c4.801-4.382,10.373-7.737,16.719-10.055
				c6.353-2.43,12.935-3.648,19.755-3.648c6.762,0,13.344,1.188,19.752,3.563c6.404,2.376,11.981,5.758,16.719,10.14
				c4.984,4.51,8.84,9.671,11.572,15.482c2.787,5.986,4.181,12.455,4.181,19.398l-0.092,46.351l-28.204-0.264V204.443z
				 M478.129,149.548c-2.19,3.504-3.288,7.331-3.288,11.484c0,6.286,2.371,11.711,7.116,16.281
				c4.688,4.506,10.228,6.756,16.639,6.756c6.46,0,12.042-2.25,16.724-6.756c4.744-4.57,7.118-9.995,7.118-16.281
				c0-4.153-1.099-7.98-3.293-11.484c-2.19-3.494-5.129-6.281-8.803-8.361c-3.622-2.014-7.539-3.024-11.746-3.024
				c-4.089,0-7.977,1.011-11.655,3.024C483.264,143.267,480.329,146.054,478.129,149.548z"/>
			<path fill="#231F20" d="M571.016,115.917c0-11.027,1.895-19.506,5.693-25.443c3.796-5.869,9.133-10.2,16.017-12.987
				c6.762-2.729,14.948-4.092,24.555-4.092l0.177,26.336c-7.178-0.058-11.981,0.979-14.41,3.114
				c-2.434,2.252-3.651,6.617-3.651,13.072h11.127l6.315,24.384h-17.442v66.724h-28.38v-66.724h-9.337l-6.416-24.384H571.016z"/>
			<path fill="#231F20" d="M637.652,115.917c0-11.027,1.895-19.506,5.691-25.443c3.798-5.869,9.14-10.2,16.019-12.987
				c6.758-2.729,14.945-4.092,24.556-4.092l0.177,26.336c-7.174-0.058-11.981,0.979-14.411,3.114
				c-2.429,2.252-3.653,6.617-3.653,13.072h11.123l6.321,24.384h-17.444v66.724h-28.378v-66.724h-9.337l-6.411-24.384H637.652z"/>
			<path fill="#231F20" d="M784.541,141.724c2.674,5.99,4.012,12.396,4.012,19.213v0.803c0,0.303-0.031,0.62-0.094,0.98
				l-0.178,1.517h-11.027v0.175h-61.217c0.714,4.983,2.881,9.283,6.499,12.902c4.561,4.506,9.905,6.756,16.008,6.756
				c6.174,0,11.512-2.25,16.017-6.756l0.183-0.184l0.265-0.354l0.267-0.269l0.182-0.266l15.301,21.889
				c-4.393,3.557-8.839,6.259-13.344,8.098c-6.057,2.369-12.342,3.557-18.869,3.557c-8.84,0-17.049-2.106-24.638-6.317
				c-7.773-4.272-13.912-10.113-18.417-17.526c-4.626-7.415-6.939-15.746-6.939-25.005c0-6.937,1.336-13.339,4-19.213
				c2.669-5.929,6.347-11.092,11.035-15.48c4.745-4.51,10.082-7.919,16.012-10.231c6.111-2.376,12.422-3.563,18.947-3.563
				c6.527,0,12.813,1.188,18.869,3.563c5.992,2.313,11.354,5.688,16.1,10.14C778.199,130.476,781.873,135.675,784.541,141.724z
				 M738.542,138.162c-3.971,0-7.707,1.011-11.207,3.024c-2.133,1.313-4.208,3.147-6.227,5.521h34.875
				c-2.018-2.373-4.09-4.208-6.225-5.521C746.251,139.173,742.522,138.162,738.542,138.162z"/>
			<path fill="#231F20" d="M897.265,151.154v56.05H868.71v-56.05c-0.479-8.364-4.065-12.666-10.77-12.898h-1.604
				c-7.236,0.232-10.848,5.243-10.848,15.032v53.916h-28.477v-53.916c0-25.801,13.115-39.41,39.324-40.84h1.604
				c10.439,0.597,18.807,3.084,25.094,7.476c6.225-4.392,14.559-6.879,24.998-7.476h1.598c26.22,1.43,39.33,15.039,39.33,40.84
				v53.916h-28.475v-53.916c0-9.789-3.614-14.8-10.855-15.032h-1.598C901.328,138.488,897.744,142.79,897.265,151.154z"/>
			<path fill="#231F20" d="M1029.566,204.443c-1.898,0.837-3.295,1.396-4.184,1.691c-6.285,2.438-12.871,3.65-19.748,3.65
				c-9.077,0-17.646-2.106-25.716-6.317c-8.069-4.272-14.474-10.082-19.218-17.439c-4.801-7.471-7.205-15.807-7.205-24.996
				c0-6.943,1.396-13.412,4.184-19.398c2.782-5.933,6.611-11.089,11.477-15.482c4.806-4.382,10.378-7.737,16.725-10.055
				c6.348-2.43,12.93-3.648,19.754-3.648c6.764,0,13.348,1.188,19.748,3.563c6.41,2.376,11.982,5.758,16.73,10.14
				c4.978,4.51,8.834,9.671,11.565,15.482c2.788,5.986,4.181,12.455,4.181,19.398l-0.087,46.351l-28.206-0.264V204.443z
				 M985.169,149.548c-2.197,3.504-3.289,7.331-3.289,11.484c0,6.286,2.373,11.711,7.115,16.281
				c4.689,4.506,10.23,6.756,16.639,6.756c6.465,0,12.037-2.25,16.727-6.756c4.744-4.57,7.115-9.995,7.115-16.281
				c0-4.153-1.098-7.98-3.288-11.484c-2.194-3.494-5.134-6.281-8.812-8.361c-3.621-2.014-7.533-3.024-11.742-3.024
				c-4.094,0-7.98,1.011-11.654,3.024C990.302,143.267,987.359,146.054,985.169,149.548z"/>
			<path fill="#231F20" d="M1101.628,138.162c-7.232,0.3-10.848,5.337-10.848,15.126v53.831h-28.473v-53.831
				c0-25.92,13.104-39.533,39.32-40.84h1.602c26.219,1.307,39.323,14.92,39.323,40.84v53.831h-28.466v-53.831
				c0-9.789-3.621-14.826-10.857-15.126H1101.628z"/>
			<path fill="#231F20" d="M1223.076,204.443c-1.904,0.837-3.293,1.396-4.184,1.691c-6.288,2.438-12.873,3.65-19.752,3.65
				c-9.074,0-17.646-2.106-25.71-6.317c-8.063-4.272-14.474-10.082-19.222-17.439c-4.803-7.471-7.201-15.807-7.201-24.996
				c0-6.943,1.389-13.412,4.184-19.398c2.787-5.933,6.611-11.089,11.475-15.482c4.803-4.382,10.375-7.737,16.727-10.055
				c6.342-2.43,12.928-3.648,19.748-3.648c6.762,0,13.344,1.188,19.752,3.563c6.404,2.376,11.98,5.758,16.727,10.14
				c4.983,4.51,8.834,9.671,11.564,15.482c2.789,5.986,4.184,12.455,4.184,19.398l-0.09,46.351l-28.201-0.264V204.443z
				 M1178.678,149.548c-2.194,3.504-3.293,7.331-3.293,11.484c0,6.286,2.374,11.711,7.118,16.281
				c4.682,4.506,10.232,6.756,16.637,6.756c6.467,0,12.048-2.25,16.725-6.756c4.746-4.57,7.123-9.995,7.123-16.281
				c0-4.153-1.103-7.98-3.293-11.484c-2.196-3.494-5.131-6.281-8.813-8.361c-3.611-2.014-7.527-3.024-11.742-3.024
				c-4.09,0-7.98,1.011-11.652,3.024C1183.81,143.267,1180.875,146.054,1178.678,149.548z"/>
			<path fill="#231F20" d="M1355.189,161.829l-0.083,48.225v6.581c0,11.69-4.151,21.677-12.46,29.984
				c-3.85,3.853-9.01,6.913-15.482,9.161c-6.039,2.136-12.037,3.205-17.969,3.205h-4.979c-13.52-0.302-24.291-4.422-32.297-12.366
				c-5.4-5.517-8.662-10.353-9.789-14.509l27.139-15.739c0.291,4.68,2.166,8.657,5.604,11.919c3.439,3.261,7.533,4.895,12.277,4.895
				c3.736,0,7.148-1.074,10.234-3.208c3.021-2.071,5.191-4.745,6.491-8.004l0.089-0.354l0.178-0.445
				c0.118-0.418,0.232-0.832,0.357-1.251c0.23-0.711,0.381-1.418,0.443-2.129v-0.269l0.087-0.269l0.089-0.352v-0.534h0.095v-9.347
				l-0.714,0.358l-0.711,0.269c-5.93,2.43-12.158,3.645-18.684,3.645c-8.662,0-16.762-2.164-24.289-6.494
				c-7.531-4.208-13.582-10.111-18.15-17.704c-4.568-7.595-6.852-16.043-6.852-25.358c0-7.053,1.338-13.578,4.006-19.573
				c2.543-5.923,6.165-11.207,10.852-15.842c4.572-4.385,9.843-7.794,15.836-10.228c6.051-2.43,12.247-3.648,18.598-3.648
				c11.035,0,19.219,1.43,24.551,4.27C1346.683,124.016,1355.189,139.057,1355.189,161.829z M1290.697,177.582
				c4.68,4.563,10.08,6.843,16.189,6.843c6.164,0,11.596-2.279,16.277-6.843c4.629-4.515,6.944-9.941,6.944-16.285
				c0-4.031-1.071-7.829-3.204-11.391c-2.139-3.56-4.983-6.345-8.543-8.357c-3.614-2.022-7.443-3.029-11.475-3.029
				c-4.038,0-7.805,1.007-11.307,3.029c-3.559,2.013-6.436,4.798-8.625,8.357c-2.133,3.562-3.203,7.359-3.203,11.391
				C1283.751,167.641,1286.066,173.067,1290.697,177.582z"/>
			<path fill="#231F20" d="M1455.636,141.724c2.668,5.99,4.006,12.396,4.006,19.213v0.803c0,0.303-0.027,0.62-0.09,0.98
				l-0.176,1.517h-11.029v0.175h-61.21c0.706,4.983,2.87,9.283,6.487,12.902c4.572,4.506,9.91,6.756,16.021,6.756
				c6.164,0,11.502-2.25,16.014-6.756l0.172-0.184l0.266-0.354l0.274-0.269l0.173-0.266l15.305,21.889
				c-4.385,3.557-8.834,6.259-13.35,8.098c-6.045,2.369-12.336,3.557-18.854,3.557c-8.844,0-17.057-2.106-24.646-6.317
				c-7.774-4.272-13.917-10.113-18.422-17.526c-4.619-7.415-6.936-15.746-6.936-25.005c0-6.937,1.332-13.339,4.007-19.213
				c2.662-5.929,6.347-11.092,11.032-15.48c4.745-4.51,10.078-7.919,16.008-10.231c6.114-2.376,12.434-3.563,18.957-3.563
				c6.518,0,12.809,1.188,18.854,3.563c5.994,2.313,11.367,5.688,16.112,10.14C1449.294,130.476,1452.972,135.675,1455.636,141.724z
				 M1409.646,138.162c-3.98,0-7.713,1.011-11.217,3.024c-2.131,1.313-4.207,3.147-6.225,5.521h34.881
				c-2.025-2.373-4.094-4.208-6.232-5.521C1417.357,139.173,1413.617,138.162,1409.646,138.162z"/>
			<path fill="#231F20" d="M1510.806,139.766c-1.488-1.009-3.414-1.572-5.785-1.688h-1.607c-7.237,0.295-10.852,5.333-10.852,15.124
				v53.918h-28.469v-53.918c0-25.92,13.107-39.534,39.32-40.838h1.607c1.951,0.06,3.881,0.234,5.785,0.534V139.766z"/>
		</g>
	</g>
	<g>
		<path fill="#231F20" d="M296.308,132.145c-3.58-16.819-10.183-32.534-19.271-46.493l14.921-21.358l-34.325-34.309l-21.355,14.911
			c-13.963-9.084-29.653-15.71-46.493-19.27L185.231,0h-24.259h-24.266l-4.552,25.626c-16.828,3.56-32.542,10.186-46.499,19.27
			L64.303,29.984L29.981,64.293l14.931,21.358c-9.091,13.959-15.704,29.674-19.279,46.493L0,136.717v48.511l25.632,4.555
			c3.576,16.826,10.188,32.53,19.279,46.493l-14.915,21.37l34.312,34.302l21.347-14.914c13.958,9.082,29.671,15.694,46.499,19.27
			l4.568,25.627h24.25h24.259l4.552-25.627c16.84-3.575,32.53-10.188,46.493-19.27l21.355,14.914l34.325-34.302l-14.921-21.37
			c9.089-13.963,15.692-29.667,19.271-46.493l25.638-4.555v-48.511L296.308,132.145z M235.439,218.72
			c-2.979,0-5.845-0.472-8.532-1.342c-15.919,18.587-39.543,30.387-65.935,30.387c-47.934,0-86.796-38.867-86.796-86.804
			c0-47.934,38.862-86.794,86.796-86.794c47.937,0,86.795,38.86,86.795,86.794c0,1.741-0.067,3.468-0.169,5.186
			c9.195,4.505,15.527,13.954,15.527,24.884C263.126,206.322,250.729,218.72,235.439,218.72z"/>
		<g>
			<path fill="#1C75BC" d="M236.992,172.325c0.447-3.336,0.697-6.735,0.697-10.196H84.257c0,42.364,34.351,76.72,76.716,76.72
				c26.1,0,49.144-13.051,63.001-32.967c3.173,2.449,7.143,3.928,11.465,3.928c10.369,0,18.777-8.413,18.777-18.779
				C254.216,181.181,246.634,173.121,236.992,172.325z M235.439,201.204c-2.668,0-5.09-1.033-6.907-2.707
				c2.971-5.516,5.286-11.431,6.844-17.649c0.021,0,0.042,0,0.063,0c5.618,0,10.178,4.548,10.178,10.183
				C245.617,196.649,241.057,201.204,235.439,201.204z"/>
			<path fill="#1C75BC" d="M139.668,156.7h15.191c0.102-0.479,0.218-0.951,0.287-1.426c1.375-8.777-2.07-17.393-10.267-25.577
				c-1.55-1.557-4.121-4.536-3.77-6.979c0.341-2.42,3.47-4.85,4.932-5.646l-6.695-12.688c-1.095,0.582-10.844,5.941-12.41,16.133
				c-0.702,4.555,0.085,11.602,7.806,19.31C140.928,146.019,142.527,151.302,139.668,156.7z"/>
			<path fill="#1C75BC" d="M175.937,156.7h15.202c0.096-0.479,0.208-0.951,0.286-1.426c1.374-8.777-2.078-17.393-10.269-25.577
				c-1.558-1.557-4.126-4.536-3.77-6.979c0.346-2.42,3.462-4.85,4.924-5.646l-6.68-12.688c-1.111,0.582-10.855,5.941-12.416,16.133
				c-0.708,4.555,0.083,11.602,7.798,19.31C177.196,146.019,178.799,151.302,175.937,156.7z"/>
		</g>
	</g>
</g>
</svg>
