<?xml version="1.0" encoding="utf-8"?>
<!-- Generator: Adobe Illustrator 16.0.0, SVG Export Plug-In . SVG Version: 6.00 Build 0)  -->
<!DOCTYPE svg PUBLIC "-//W3C//DTD SVG 1.1//EN" "http://www.w3.org/Graphics/SVG/1.1/DTD/svg11.dtd">
<svg version="1.1" id="Layer_1" xmlns="http://www.w3.org/2000/svg" xmlns:xlink="http://www.w3.org/1999/xlink" x="0px" y="0px"
	 width="680.098px" height="404.389px" viewBox="0 0 680.098 404.389" enable-background="new 0 0 680.098 404.389"
	 xml:space="preserve">
<g>
	<g>
		<g>
			<path fill="#231F20" d="M41.654,335.774c-1.517-1.267-3.173-2.217-4.97-2.853c-1.868-0.633-3.842-0.95-5.918-0.95
				c-3.878,0-7.155,1.25-9.832,3.754c-2.716,2.5-4.074,5.601-4.074,9.301c0,2.891,0.585,5.482,1.747,7.771
				c1.13,2.29,2.802,4.104,5.021,5.444c2.149,1.374,4.633,2.063,7.453,2.063c4.159,0,7.717-1.321,10.677-3.964l9.25,11.733
				c-1.336,1.411-3.202,2.659-5.6,3.753c-2.435,1.09-4.935,1.904-7.507,2.43c-2.572,0.53-4.952,0.794-7.135,0.794
				c-6.133,0-11.541-1.284-16.228-3.856c-4.688-2.61-8.285-6.028-10.785-10.254C1.251,356.636,0,352.042,0,347.143
				c0-4.477,0.757-8.527,2.271-12.16c1.553-3.7,3.683-6.872,6.399-9.512c2.676-2.572,5.941-4.599,9.781-6.082
				c3.805-1.443,7.91-2.168,12.316-2.168c3.595,0,7.099,0.563,10.52,1.695c3.452,1.161,6.5,2.801,9.14,4.915L41.654,335.774z"/>
			<path fill="#231F20" d="M92.929,371.984c-1.129,0.496-1.958,0.829-2.484,1.004c-3.738,1.45-7.648,2.17-11.736,2.17
				c-5.392,0-10.484-1.253-15.277-3.753c-4.791-2.542-8.599-5.989-11.419-10.362c-2.853-4.44-4.279-9.391-4.279-14.849
				c0-4.125,0.824-7.969,2.482-11.525c1.657-3.525,3.931-6.595,6.821-9.198c2.853-2.608,6.167-4.599,9.937-5.978
				c3.774-1.44,7.686-2.165,11.736-2.165c4.015,0,7.928,0.704,11.736,2.116c3.803,1.409,7.117,3.418,9.937,6.026
				c2.959,2.676,5.249,5.742,6.872,9.198c1.656,3.557,2.484,7.4,2.484,11.525l-0.055,27.537l-16.754-0.156V371.984z M66.551,339.371
				c-1.303,2.081-1.956,4.354-1.956,6.823c0,3.73,1.409,6.954,4.229,9.67c2.784,2.678,6.079,4.014,9.885,4.014
				c3.838,0,7.153-1.336,9.939-4.014c2.816-2.716,4.227-5.939,4.227-9.67c0-2.47-0.653-4.742-1.956-6.823
				c-1.303-2.08-3.049-3.735-5.231-4.971c-2.151-1.198-4.479-1.796-6.978-1.796c-2.43,0-4.74,0.598-6.925,1.796
				C69.599,335.636,67.856,337.291,66.551,339.371z"/>
			<path fill="#231F20" d="M121.737,319.389c0-6.553,1.126-11.59,3.381-15.118c2.255-3.487,5.429-6.06,9.515-7.715
				c4.019-1.624,8.881-2.434,14.591-2.434l0.106,15.647c-4.266-0.034-7.12,0.584-8.563,1.853c-1.446,1.335-2.169,3.93-2.169,7.767
				h6.611l3.751,14.484h-10.362v39.644h-16.861v-39.644h-5.549l-3.808-14.484H121.737z"/>
			<path fill="#231F20" d="M161.329,319.389c0-6.553,1.124-11.59,3.381-15.118c2.256-3.487,5.429-6.06,9.519-7.715
				c4.015-1.624,8.877-2.434,14.587-2.434l0.106,15.647c-4.264-0.034-7.119,0.584-8.563,1.853c-1.444,1.335-2.169,3.93-2.169,7.767
				h6.609l3.753,14.484H178.19v39.644h-16.861v-39.644h-5.551l-3.805-14.484H161.329z"/>
			<path fill="#231F20" d="M248.602,334.718c1.588,3.562,2.379,7.365,2.379,11.418v0.477c0,0.179-0.018,0.369-0.054,0.584
				l-0.104,0.899h-6.556v0.103h-36.366c0.42,2.962,1.709,5.517,3.857,7.666c2.712,2.678,5.886,4.014,9.512,4.014
				c3.671,0,6.838-1.336,9.519-4.014l0.106-0.105l0.157-0.214l0.161-0.159l0.106-0.154l9.089,13.001
				c-2.606,2.116-5.249,3.721-7.925,4.814c-3.598,1.404-7.333,2.111-11.212,2.111c-5.249,0-10.129-1.253-14.639-3.753
				c-4.617-2.542-8.265-6.009-10.941-10.414c-2.75-4.406-4.125-9.357-4.125-14.855c0-4.123,0.796-7.926,2.38-11.418
				c1.584-3.521,3.77-6.588,6.552-9.195c2.822-2.678,5.993-4.705,9.517-6.078c3.629-1.412,7.38-2.116,11.255-2.116
				c3.879,0,7.614,0.704,11.212,2.116c3.558,1.373,6.744,3.38,9.564,6.026C244.829,328.039,247.014,331.126,248.602,334.718z
				 M221.27,332.604c-2.359,0-4.578,0.598-6.656,1.796c-1.269,0.778-2.502,1.87-3.701,3.282h20.721c-1.2-1.412-2.43-2.504-3.7-3.282
				C225.852,333.202,223.635,332.604,221.27,332.604z"/>
			<path fill="#231F20" d="M315.577,340.322v33.302h-16.969v-33.302c-0.283-4.971-2.414-7.525-6.396-7.662h-0.953
				c-4.302,0.137-6.444,3.114-6.444,8.931v32.033h-16.922v-32.033c0-15.328,7.792-23.417,23.366-24.263h0.953
				c6.201,0.354,11.169,1.83,14.907,4.44c3.698-2.61,8.649-4.087,14.851-4.44h0.952c15.576,0.846,23.364,8.935,23.364,24.263v32.033
				h-16.914v-32.033c0-5.816-2.148-8.794-6.45-8.931h-0.952C317.991,332.797,315.858,335.352,315.577,340.322z"/>
			<path fill="#231F20" d="M394.179,371.984c-1.13,0.496-1.957,0.829-2.487,1.004c-3.735,1.45-7.642,2.17-11.731,2.17
				c-5.395,0-10.488-1.253-15.279-3.753c-4.796-2.542-8.599-5.989-11.418-10.362c-2.852-4.44-4.282-9.391-4.282-14.849
				c0-4.125,0.833-7.969,2.487-11.525c1.653-3.525,3.928-6.595,6.82-9.198c2.855-2.608,6.164-4.599,9.936-5.978
				c3.767-1.44,7.68-2.165,11.736-2.165c4.016,0,7.928,0.704,11.731,2.116c3.81,1.409,7.122,3.418,9.94,6.026
				c2.963,2.676,5.25,5.742,6.868,9.198c1.659,3.557,2.487,7.4,2.487,11.525l-0.051,27.537l-16.758-0.156V371.984z M367.798,339.371
				c-1.302,2.081-1.95,4.354-1.95,6.823c0,3.73,1.409,6.954,4.228,9.67c2.783,2.678,6.078,4.014,9.885,4.014
				c3.84,0,7.154-1.336,9.938-4.014c2.818-2.716,4.229-5.939,4.229-9.67c0-2.47-0.655-4.742-1.957-6.823
				c-1.306-2.08-3.054-3.735-5.232-4.971c-2.149-1.198-4.474-1.796-6.978-1.796c-2.434,0-4.744,0.598-6.923,1.796
				C370.852,335.636,369.103,337.291,367.798,339.371z"/>
			<path fill="#231F20" d="M436.996,332.604c-4.298,0.177-6.447,3.17-6.447,8.986v31.984H413.63v-31.984
				c0-15.397,7.788-23.488,23.365-24.263h0.95c15.576,0.774,23.362,8.865,23.362,24.263v31.984h-16.911v-31.984
				c0-5.816-2.154-8.81-6.451-8.986H436.996z"/>
			<path fill="#231F20" d="M509.151,371.984c-1.13,0.496-1.958,0.829-2.481,1.004c-3.742,1.45-7.654,2.17-11.736,2.17
				c-5.396,0-10.49-1.253-15.279-3.753c-4.791-2.542-8.602-5.989-11.42-10.362c-2.852-4.44-4.281-9.391-4.281-14.849
				c0-4.125,0.828-7.969,2.487-11.525c1.653-3.525,3.926-6.595,6.818-9.198c2.853-2.608,6.165-4.599,9.937-5.978
				c3.771-1.44,7.68-2.165,11.738-2.165c4.015,0,7.923,0.704,11.736,2.116c3.804,1.409,7.116,3.418,9.931,6.026
				c2.966,2.676,5.255,5.742,6.872,9.198c1.659,3.557,2.487,7.4,2.487,11.525l-0.052,27.537l-16.757-0.156V371.984z
				 M482.775,339.371c-1.307,2.081-1.955,4.354-1.955,6.823c0,3.73,1.409,6.954,4.228,9.67c2.778,2.678,6.078,4.014,9.886,4.014
				c3.838,0,7.153-1.336,9.93-4.014c2.82-2.716,4.236-5.939,4.236-9.67c0-2.47-0.657-4.742-1.957-6.823
				c-1.307-2.08-3.049-3.735-5.239-4.971c-2.143-1.198-4.474-1.796-6.97-1.796c-2.437,0-4.745,0.598-6.924,1.796
				C485.824,335.636,484.074,337.291,482.775,339.371z"/>
			<path fill="#231F20" d="M587.644,346.668l-0.047,28.651v3.91c0,6.943-2.473,12.876-7.404,17.815
				c-2.289,2.286-5.354,4.103-9.196,5.44c-3.591,1.271-7.154,1.903-10.682,1.903h-2.955c-8.03-0.179-14.431-2.628-19.191-7.344
				c-3.205-3.282-5.145-6.151-5.812-8.621l16.122-9.355c0.172,2.783,1.286,5.146,3.331,7.083c2.045,1.939,4.474,2.907,7.292,2.907
				c2.217,0,4.246-0.635,6.083-1.905c1.794-1.23,3.08-2.816,3.854-4.754l0.052-0.213l0.105-0.262
				c0.073-0.248,0.141-0.496,0.219-0.744c0.135-0.421,0.224-0.842,0.26-1.267v-0.156l0.052-0.161l0.051-0.206v-0.322h0.059v-5.552
				l-0.421,0.215l-0.427,0.158c-3.521,1.443-7.226,2.164-11.103,2.164c-5.145,0-9.956-1.287-14.431-3.853
				c-4.474-2.503-8.068-6.013-10.784-10.522c-2.712-4.51-4.069-9.529-4.069-15.066c0-4.194,0.792-8.068,2.383-11.63
				c1.51-3.521,3.657-6.659,6.447-9.411c2.715-2.604,5.847-4.631,9.41-6.078c3.588-1.44,7.272-2.165,11.044-2.165
				c6.555,0,11.42,0.846,14.587,2.536C582.59,324.2,587.644,333.135,587.644,346.668z M549.33,356.023
				c2.775,2.711,5.985,4.066,9.618,4.066c3.662,0,6.888-1.355,9.671-4.066c2.747-2.68,4.125-5.905,4.125-9.673
				c0-2.398-0.636-4.652-1.904-6.77c-1.271-2.115-2.959-3.769-5.078-4.966c-2.146-1.198-4.422-1.798-6.813-1.798
				c-2.4,0-4.637,0.6-6.718,1.798c-2.111,1.197-3.822,2.851-5.129,4.966c-1.264,2.117-1.899,4.371-1.899,6.77
				C545.202,350.118,546.576,353.344,549.33,356.023z"/>
			<path fill="#231F20" d="M647.324,334.718c1.586,3.562,2.383,7.365,2.383,11.418v0.477c0,0.179-0.021,0.369-0.059,0.584
				l-0.103,0.899h-6.554v0.103h-36.365c0.421,2.962,1.705,5.517,3.854,7.666c2.716,2.678,5.884,4.014,9.517,4.014
				c3.666,0,6.834-1.336,9.518-4.014l0.102-0.105l0.16-0.214l0.162-0.159l0.098-0.154l9.094,13.001
				c-2.606,2.116-5.248,3.721-7.928,4.814c-3.596,1.404-7.331,2.111-11.205,2.111c-5.25,0-10.129-1.253-14.642-3.753
				c-4.619-2.542-8.27-6.009-10.945-10.414c-2.747-4.406-4.12-9.357-4.12-14.855c0-4.123,0.791-7.926,2.378-11.418
				c1.586-3.521,3.771-6.588,6.554-9.195c2.821-2.678,5.988-4.705,9.517-6.078c3.63-1.412,7.382-2.116,11.259-2.116
				c3.874,0,7.609,0.704,11.205,2.116c3.559,1.373,6.753,3.38,9.571,6.026C643.552,328.039,645.743,331.126,647.324,334.718z
				 M619.998,332.604c-2.362,0-4.584,0.598-6.66,1.796c-1.271,0.778-2.503,1.87-3.704,3.282h20.726
				c-1.201-1.412-2.434-2.504-3.704-3.282C624.579,333.202,622.357,332.604,619.998,332.604z"/>
			<path fill="#231F20" d="M680.098,333.558c-0.879-0.598-2.022-0.934-3.434-1.005h-0.951c-4.302,0.175-6.451,3.173-6.451,8.988
				v32.034h-16.911v-32.034c0-15.403,7.782-23.488,23.362-24.265h0.951c1.161,0.036,2.306,0.142,3.434,0.315V333.558z"/>
		</g>
	</g>
	<g>
		<path fill="#231F20" d="M448.96,106.346c-2.879-13.538-8.193-26.182-15.509-37.415l12.006-17.189L417.833,24.13l-17.183,12
			c-11.236-7.309-23.864-12.64-37.415-15.505L359.574,0h-19.525h-19.53l-3.662,20.625c-13.54,2.865-26.185,8.196-37.419,15.505
			l-17.183-12l-27.622,27.611l12.015,17.189c-7.315,11.233-12.637,23.877-15.513,37.415l-20.627,3.678v39.04l20.627,3.659
			c2.876,13.547,8.198,26.187,15.513,37.42l-12.001,17.196l27.613,27.605l17.179-12.003c11.234,7.308,23.879,12.632,37.419,15.507
			l3.678,20.625h19.514h19.525l3.662-20.625c13.551-2.875,26.179-8.199,37.415-15.507l17.183,12.003l27.624-27.605l-12.006-17.196
			c7.315-11.233,12.63-23.873,15.509-37.42l20.632-3.659v-39.04L448.96,106.346z M399.975,176.014c-2.394,0-4.704-0.38-6.862-1.078
			c-12.814,14.959-31.822,24.45-53.064,24.45c-38.574,0-69.848-31.272-69.848-69.852c0-38.574,31.274-69.848,69.848-69.848
			c38.575,0,69.852,31.273,69.852,69.848c0,1.402-0.059,2.792-0.137,4.174c7.397,3.622,12.495,11.228,12.495,20.028
			C422.259,166.037,412.279,176.014,399.975,176.014z"/>
		<g>
			<path fill="#1C75BC" d="M401.228,138.679c0.357-2.688,0.557-5.418,0.557-8.205H278.312c0,34.094,27.642,61.738,61.737,61.738
				c21.006,0,39.547-10.5,50.701-26.528c2.555,1.974,5.75,3.159,9.226,3.159c8.345,0,15.11-6.768,15.11-15.109
				C415.085,145.806,408.986,139.314,401.228,138.679z M399.975,161.919c-2.146,0-4.096-0.83-5.557-2.182
				c2.394-4.436,4.255-9.195,5.51-14.199c0.016,0,0.031,0,0.047,0c4.525,0,8.192,3.661,8.192,8.195
				C408.167,158.257,404.5,161.919,399.975,161.919z"/>
			<path fill="#1C75BC" d="M322.907,126.103h12.225c0.079-0.38,0.172-0.761,0.229-1.143c1.108-7.066-1.67-13.997-8.261-20.587
				c-1.248-1.251-3.319-3.651-3.033-5.615c0.276-1.948,2.789-3.905,3.97-4.546l-5.39-10.209c-0.884,0.47-8.729,4.782-9.988,12.983
				c-0.562,3.664,0.073,9.337,6.285,15.538C323.916,117.509,325.207,121.763,322.907,126.103z"/>
			<path fill="#1C75BC" d="M352.091,126.103h12.23c0.078-0.38,0.173-0.761,0.235-1.143c1.103-7.066-1.675-13.997-8.267-20.587
				c-1.254-1.251-3.32-3.651-3.033-5.615c0.281-1.948,2.788-3.905,3.964-4.546l-5.374-10.209c-0.895,0.47-8.739,4.782-9.993,12.983
				c-0.572,3.664,0.067,9.337,6.273,15.538C353.106,117.509,354.397,121.763,352.091,126.103z"/>
		</g>
	</g>
</g>
</svg>
