<?xml version="1.0" encoding="utf-8"?>
<!-- Generator: Adobe Illustrator 16.0.0, SVG Export Plug-In . SVG Version: 6.00 Build 0)  -->
<!DOCTYPE svg PUBLIC "-//W3C//DTD SVG 1.1//EN" "http://www.w3.org/Graphics/SVG/1.1/DTD/svg11.dtd">
<svg version="1.1" id="Layer_1" xmlns="http://www.w3.org/2000/svg" xmlns:xlink="http://www.w3.org/1999/xlink" x="0px" y="0px"
	 width="1510.806px" height="321.93px" viewBox="0 0 1510.806 321.93" enable-background="new 0 0 1510.806 321.93"
	 xml:space="preserve">
<g>
	<g>
		<path fill="#1C75BC" d="M436.229,143.498c-2.548-2.131-5.342-3.729-8.364-4.795c-3.147-1.072-6.467-1.602-9.963-1.602
			c-6.523,0-12.044,2.1-16.549,6.311c-4.568,4.211-6.851,9.43-6.851,15.658c0,4.863,0.978,9.227,2.934,13.082
			c1.904,3.855,4.718,6.91,8.454,9.162c3.615,2.316,7.798,3.475,12.542,3.475c6.998,0,12.99-2.227,17.974-6.674l15.565,19.748
			c-2.246,2.377-5.389,4.479-9.426,6.32c-4.094,1.832-8.302,3.201-12.635,4.09c-4.329,0.889-8.331,1.332-12.008,1.332
			c-10.321,0-19.426-2.166-27.313-6.494c-7.886-4.391-13.942-10.137-18.151-17.26c-4.213-7.236-6.32-14.973-6.32-23.217
			c0-7.535,1.274-14.359,3.824-20.467c2.616-6.229,6.201-11.564,10.769-16.012c4.504-4.324,9.998-7.742,16.458-10.234
			c6.404-2.43,13.314-3.654,20.732-3.654c6.051,0,11.95,0.959,17.708,2.857c5.808,1.957,10.941,4.713,15.384,8.271L436.229,143.498z
			"/>
		<path fill="#1C75BC" d="M522.524,204.445c-1.893,0.836-3.293,1.393-4.176,1.689c-6.291,2.439-12.872,3.652-19.752,3.652
			c-9.073,0-17.643-2.107-25.712-6.314c-8.069-4.277-14.478-10.082-19.222-17.445c-4.801-7.471-7.206-15.803-7.206-24.99
			c0-6.947,1.396-13.414,4.183-19.402c2.79-5.93,6.613-11.09,11.482-15.479c4.801-4.387,10.373-7.742,16.719-10.059
			c6.353-2.43,12.935-3.646,19.755-3.646c6.762,0,13.344,1.186,19.752,3.564c6.404,2.371,11.981,5.754,16.719,10.141
			c4.984,4.51,8.84,9.67,11.572,15.479c2.787,5.988,4.181,12.455,4.181,19.402l-0.092,46.348l-28.204-0.266V204.445z
			 M478.129,149.549c-2.19,3.502-3.288,7.332-3.288,11.488c0,6.283,2.371,11.711,7.116,16.277
			c4.688,4.506,10.228,6.752,16.639,6.752c6.46,0,12.042-2.246,16.724-6.752c4.744-4.566,7.118-9.994,7.118-16.277
			c0-4.156-1.099-7.986-3.293-11.488c-2.19-3.496-5.129-6.277-8.803-8.365c-3.622-2.014-7.539-3.021-11.746-3.021
			c-4.089,0-7.977,1.008-11.655,3.021C483.264,143.271,480.329,146.053,478.129,149.549z"/>
		<path fill="#1C75BC" d="M571.016,115.922c0-11.031,1.895-19.512,5.693-25.445c3.796-5.873,9.133-10.201,16.017-12.988
			c6.762-2.73,14.948-4.092,24.555-4.092l0.177,26.336c-7.178-0.059-11.981,0.98-14.41,3.113c-2.434,2.254-3.651,6.619-3.651,13.076
			h11.127l6.315,24.379h-17.442v66.723h-28.38v-66.723h-9.337l-6.416-24.379H571.016z"/>
		<path fill="#1C75BC" d="M637.652,115.922c0-11.031,1.895-19.512,5.691-25.445c3.798-5.873,9.14-10.201,16.019-12.988
			c6.758-2.73,14.945-4.092,24.556-4.092l0.177,26.336c-7.174-0.059-11.981,0.98-14.411,3.113
			c-2.429,2.254-3.653,6.619-3.653,13.076h11.123l6.321,24.379h-17.444v66.723h-28.378v-66.723h-9.337l-6.411-24.379H637.652z"/>
		<path fill="#1C75BC" d="M784.541,141.725c2.674,5.988,4.012,12.398,4.012,19.211v0.809c0,0.301-0.031,0.619-0.094,0.977
			l-0.178,1.516h-11.027v0.176h-61.217c0.714,4.984,2.881,9.285,6.499,12.902c4.561,4.506,9.905,6.752,16.008,6.752
			c6.174,0,11.512-2.246,16.017-6.752l0.183-0.184l0.265-0.354l0.267-0.27l0.182-0.266l15.301,21.885
			c-4.393,3.561-8.839,6.264-13.344,8.102c-6.057,2.373-12.342,3.559-18.869,3.559c-8.84,0-17.049-2.107-24.638-6.314
			c-7.773-4.277-13.912-10.121-18.417-17.527c-4.626-7.42-6.939-15.748-6.939-25.01c0-6.934,1.336-13.336,4-19.211
			c2.669-5.926,6.347-11.09,11.035-15.482c4.745-4.504,10.082-7.918,16.012-10.227c6.111-2.379,12.422-3.564,18.947-3.564
			c6.527,0,12.813,1.186,18.869,3.564c5.992,2.309,11.354,5.686,16.1,10.141C778.199,130.477,781.873,135.674,784.541,141.725z
			 M738.542,138.162c-3.971,0-7.707,1.008-11.207,3.021c-2.133,1.318-4.208,3.146-6.227,5.525h34.875
			c-2.018-2.379-4.09-4.207-6.225-5.525C746.251,139.17,742.522,138.162,738.542,138.162z"/>
		<path fill="#1C75BC" d="M897.265,151.156v56.049H868.71v-56.049c-0.479-8.365-4.065-12.666-10.77-12.9h-1.604
			c-7.236,0.234-10.848,5.242-10.848,15.033v53.916h-28.477v-53.916c0-25.799,13.115-39.412,39.324-40.838h1.604
			c10.439,0.598,18.807,3.086,25.094,7.477c6.225-4.391,14.559-6.879,24.998-7.477h1.598c26.22,1.426,39.33,15.039,39.33,40.838
			v53.916h-28.475v-53.916c0-9.791-3.614-14.799-10.855-15.033h-1.598C901.328,138.49,897.744,142.791,897.265,151.156z"/>
		<path fill="#1C75BC" d="M1029.566,204.445c-1.898,0.836-3.295,1.393-4.184,1.689c-6.285,2.439-12.871,3.652-19.748,3.652
			c-9.077,0-17.646-2.107-25.716-6.314c-8.069-4.277-14.474-10.082-19.218-17.445c-4.801-7.471-7.205-15.803-7.205-24.99
			c0-6.947,1.396-13.414,4.184-19.402c2.782-5.93,6.611-11.09,11.477-15.479c4.806-4.387,10.378-7.742,16.725-10.059
			c6.348-2.43,12.93-3.646,19.754-3.646c6.764,0,13.348,1.186,19.748,3.564c6.41,2.371,11.982,5.754,16.73,10.141
			c4.978,4.51,8.834,9.67,11.565,15.479c2.788,5.988,4.181,12.455,4.181,19.402l-0.087,46.348l-28.206-0.266V204.445z
			 M985.169,149.549c-2.197,3.502-3.289,7.332-3.289,11.488c0,6.283,2.373,11.711,7.115,16.277
			c4.689,4.506,10.23,6.752,16.639,6.752c6.465,0,12.037-2.246,16.727-6.752c4.744-4.566,7.115-9.994,7.115-16.277
			c0-4.156-1.098-7.986-3.288-11.488c-2.194-3.496-5.134-6.277-8.812-8.365c-3.621-2.014-7.533-3.021-11.742-3.021
			c-4.094,0-7.98,1.008-11.654,3.021C990.302,143.271,987.359,146.053,985.169,149.549z"/>
		<path fill="#1C75BC" d="M1101.628,138.162c-7.232,0.301-10.848,5.336-10.848,15.127v53.83h-28.473v-53.83
			c0-25.916,13.104-39.531,39.32-40.838h1.602c26.219,1.307,39.323,14.922,39.323,40.838v53.83h-28.466v-53.83
			c0-9.791-3.621-14.826-10.857-15.127H1101.628z"/>
		<path fill="#1C75BC" d="M1223.076,204.445c-1.904,0.836-3.293,1.393-4.184,1.689c-6.288,2.439-12.873,3.652-19.752,3.652
			c-9.074,0-17.646-2.107-25.71-6.314c-8.063-4.277-14.474-10.082-19.222-17.445c-4.803-7.471-7.201-15.803-7.201-24.99
			c0-6.947,1.389-13.414,4.184-19.402c2.787-5.93,6.611-11.09,11.475-15.479c4.803-4.387,10.375-7.742,16.727-10.059
			c6.342-2.43,12.928-3.646,19.748-3.646c6.762,0,13.344,1.186,19.752,3.564c6.404,2.371,11.98,5.754,16.727,10.141
			c4.983,4.51,8.834,9.67,11.564,15.479c2.789,5.988,4.184,12.455,4.184,19.402l-0.09,46.348l-28.201-0.266V204.445z
			 M1178.678,149.549c-2.194,3.502-3.293,7.332-3.293,11.488c0,6.283,2.374,11.711,7.118,16.277
			c4.682,4.506,10.232,6.752,16.637,6.752c6.467,0,12.048-2.246,16.725-6.752c4.746-4.566,7.123-9.994,7.123-16.277
			c0-4.156-1.103-7.986-3.293-11.488c-2.196-3.496-5.131-6.277-8.813-8.365c-3.611-2.014-7.527-3.021-11.742-3.021
			c-4.09,0-7.98,1.008-11.652,3.021C1183.81,143.271,1180.875,146.053,1178.678,149.549z"/>
		<path fill="#1C75BC" d="M1355.189,161.83l-0.083,48.229v6.58c0,11.684-4.151,21.672-12.46,29.98
			c-3.85,3.85-9.01,6.914-15.482,9.162c-6.039,2.137-12.037,3.203-17.969,3.203h-4.979c-13.52-0.301-24.291-4.422-32.297-12.365
			c-5.4-5.52-8.662-10.354-9.789-14.51l27.139-15.742c0.291,4.684,2.166,8.662,5.604,11.924c3.439,3.262,7.533,4.896,12.277,4.896
			c3.736,0,7.148-1.078,10.234-3.209c3.021-2.072,5.191-4.746,6.491-8.002l0.089-0.361l0.178-0.439
			c0.118-0.416,0.232-0.832,0.357-1.248c0.23-0.715,0.381-1.422,0.443-2.135v-0.266l0.087-0.27l0.089-0.348v-0.543h0.095v-9.344
			l-0.714,0.361l-0.711,0.264c-5.93,2.436-12.158,3.646-18.684,3.646c-8.662,0-16.762-2.164-24.289-6.492
			c-7.531-4.207-13.582-10.113-18.15-17.703c-4.568-7.594-6.852-16.043-6.852-25.355c0-7.057,1.338-13.584,4.006-19.576
			c2.543-5.926,6.165-11.207,10.852-15.842c4.572-4.385,9.843-7.795,15.836-10.229c6.051-2.43,12.247-3.646,18.598-3.646
			c11.035,0,19.219,1.426,24.551,4.271C1346.683,124.018,1355.189,139.057,1355.189,161.83z M1290.697,177.584
			c4.68,4.563,10.08,6.842,16.189,6.842c6.164,0,11.596-2.279,16.277-6.842c4.629-4.516,6.944-9.941,6.944-16.283
			c0-4.031-1.071-7.834-3.204-11.393c-2.139-3.564-4.983-6.342-8.543-8.355c-3.614-2.021-7.443-3.033-11.475-3.033
			c-4.038,0-7.805,1.012-11.307,3.033c-3.559,2.014-6.436,4.791-8.625,8.355c-2.133,3.559-3.203,7.361-3.203,11.393
			C1283.751,167.643,1286.066,173.068,1290.697,177.584z"/>
		<path fill="#1C75BC" d="M1455.636,141.725c2.668,5.988,4.006,12.398,4.006,19.211v0.809c0,0.301-0.027,0.619-0.09,0.977
			l-0.176,1.516h-11.029v0.176h-61.21c0.706,4.984,2.87,9.285,6.487,12.902c4.572,4.506,9.91,6.752,16.021,6.752
			c6.164,0,11.502-2.246,16.014-6.752l0.172-0.184l0.266-0.354l0.274-0.27l0.173-0.266l15.305,21.885
			c-4.385,3.561-8.834,6.264-13.35,8.102c-6.045,2.373-12.336,3.559-18.854,3.559c-8.844,0-17.057-2.107-24.646-6.314
			c-7.774-4.277-13.917-10.121-18.422-17.527c-4.619-7.42-6.936-15.748-6.936-25.01c0-6.934,1.332-13.336,4.007-19.211
			c2.662-5.926,6.347-11.09,11.032-15.482c4.745-4.504,10.078-7.918,16.008-10.227c6.114-2.379,12.434-3.564,18.957-3.564
			c6.518,0,12.809,1.186,18.854,3.564c5.994,2.309,11.367,5.686,16.112,10.141C1449.294,130.477,1452.972,135.674,1455.636,141.725z
			 M1409.646,138.162c-3.98,0-7.713,1.008-11.217,3.021c-2.131,1.318-4.207,3.146-6.225,5.525h34.881
			c-2.025-2.379-4.094-4.207-6.232-5.525C1417.357,139.17,1413.617,138.162,1409.646,138.162z"/>
		<path fill="#1C75BC" d="M1510.806,139.77c-1.488-1.012-3.414-1.576-5.785-1.691h-1.607c-7.237,0.295-10.852,5.334-10.852,15.123
			v53.918h-28.469v-53.918c0-25.918,13.107-39.533,39.32-40.84h1.607c1.951,0.064,3.881,0.236,5.785,0.537V139.77z"/>
	</g>
	<g>
		<path fill="#231F20" d="M296.308,132.148c-3.58-16.82-10.183-32.535-19.271-46.496l14.921-21.357l-34.325-34.309l-21.355,14.911
			c-13.963-9.082-29.653-15.71-46.493-19.269l-4.552-25.627h-24.259h-24.266l-4.552,25.627
			c-16.828,3.559-32.542,10.187-46.499,19.269L64.303,29.986L29.981,64.295l14.931,21.357
			c-9.091,13.961-15.704,29.676-19.279,46.496L0,136.721v48.512l25.632,4.551c3.576,16.824,10.188,32.531,19.279,46.494
			l-14.915,21.365l34.312,34.305l21.347-14.914c13.958,9.082,29.671,15.693,46.499,19.27l4.568,25.625h24.25h24.259l4.552-25.625
			c16.84-3.576,32.53-10.188,46.493-19.27l21.355,14.914l34.325-34.305l-14.921-21.365c9.089-13.963,15.692-29.67,19.271-46.494
			l25.638-4.551v-48.512L296.308,132.148z M235.439,218.719c-2.979,0-5.845-0.467-8.532-1.342
			c-15.919,18.588-39.543,30.387-65.935,30.387c-47.934,0-86.796-38.867-86.796-86.801s38.862-86.795,86.796-86.795
			c47.937,0,86.795,38.861,86.795,86.795c0,1.742-0.067,3.465-0.169,5.182c9.195,4.512,15.527,13.953,15.527,24.887
			C263.126,206.322,250.729,218.719,235.439,218.719z"/>
		<g>
			<path fill="#1C75BC" d="M236.992,172.324c0.447-3.332,0.697-6.73,0.697-10.191H84.257c0,42.363,34.351,76.715,76.716,76.715
				c26.1,0,49.144-13.049,63.001-32.969c3.173,2.457,7.143,3.936,11.465,3.936c10.369,0,18.777-8.414,18.777-18.783
				C254.216,181.186,246.634,173.121,236.992,172.324z M235.439,201.209c-2.668,0-5.09-1.037-6.907-2.713
				c2.971-5.514,5.286-11.428,6.844-17.648c0.021,0,0.042,0,0.063,0c5.618,0,10.178,4.553,10.178,10.184
				C245.617,196.652,241.057,201.209,235.439,201.209z"/>
			<path fill="#1C75BC" d="M139.668,156.697h15.191c0.102-0.473,0.218-0.947,0.287-1.42c1.375-8.777-2.07-17.391-10.267-25.58
				c-1.55-1.555-4.121-4.537-3.77-6.975c0.341-2.422,3.47-4.855,4.932-5.646l-6.695-12.689c-1.095,0.58-10.844,5.941-12.41,16.135
				c-0.702,4.551,0.085,11.6,7.806,19.305C140.928,146.018,142.527,151.303,139.668,156.697z"/>
			<path fill="#1C75BC" d="M175.937,156.697h15.202c0.096-0.473,0.208-0.947,0.286-1.42c1.374-8.777-2.078-17.391-10.269-25.58
				c-1.558-1.555-4.126-4.537-3.77-6.975c0.346-2.422,3.462-4.855,4.924-5.646l-6.68-12.689c-1.111,0.58-10.855,5.941-12.416,16.135
				c-0.708,4.551,0.083,11.6,7.798,19.305C177.196,146.018,178.799,151.303,175.937,156.697z"/>
		</g>
	</g>
</g>
</svg>
